<?xml version="1.0" encoding="UTF-8" standalone="no"?>
<svg width="1440px" height="1024px" viewBox="0 0 1440 1024" version="1.1" xmlns="http://www.w3.org/2000/svg" xmlns:xlink="http://www.w3.org/1999/xlink">
    <!-- Generator: Sketch 3.7.2 (28276) - http://www.bohemiancoding.com/sketch -->
    <title>background-tape</title>
    <desc>Created with Sketch.</desc>
    <defs>
        <rect id="path-1" x="0.297349877" y="8.18545232e-12" width="1011.34936" height="530.958413" rx="15"></rect>
        <mask id="mask-2" maskContentUnits="userSpaceOnUse" maskUnits="objectBoundingBox" x="0" y="0" width="1011.34936" height="530.958413" fill="white">
            <use xlink:href="#path-1"></use>
        </mask>
        <rect id="path-3" x="202.567221" y="50.5674679" width="606.809615" height="25.2837339" rx="2"></rect>
        <mask id="mask-4" maskContentUnits="userSpaceOnUse" maskUnits="objectBoundingBox" x="0" y="0" width="606.809615" height="25.2837339" fill="white">
            <use xlink:href="#path-3"></use>
        </mask>
        <rect id="path-5" x="365" y="100" width="281.297843" height="25.2837339" rx="2"></rect>
        <mask id="mask-6" maskContentUnits="userSpaceOnUse" maskUnits="objectBoundingBox" x="0" y="0" width="281.297843" height="25.2837339" fill="white">
            <use xlink:href="#path-5"></use>
        </mask>
    </defs>
    <g id="Page-1" stroke="none" stroke-width="1" fill="none" fill-rule="evenodd">
        <g id="background-tape">
            <g id="Group-2" transform="translate(1055.500393, 462.341262) rotate(-41.000000) translate(-1055.500393, -462.341262) translate(549.500393, 196.841262)">
                <path d="M126.40943,439.480316 C126.543323,439.238682 126.867463,439.042798 127.151542,439.042798 L884.664204,439.042798 C884.940169,439.042798 885.27524,439.243763 885.406316,439.480316 L935.73135,530.301276 L76.084396,530.301276 L126.40943,439.480316 Z" id="Triangle-1" stroke="#FF4E2C" stroke-width="1.5"></path>
                <use id="Rectangle-1" stroke="#FF4E2C" mask="url(#mask-2)" stroke-width="3" xlink:href="#path-1"></use>
                <g id="Group" transform="translate(137.283487, 112.256256)">
                    <ellipse id="Oval-1" fill="#F4F4F4" cx="607.161448" cy="155.860345" rx="155.662661" ry="155.662661"></ellipse>
                    <circle id="Oval-1" fill="#F4F4F4" cx="101.419885" cy="154.213528" r="100.721924"></circle>
                    <ellipse id="Oval-1" stroke="#637587" stroke-width="1.5" cx="103.209335" cy="153.222951" rx="63.2093349" ry="63.2093349"></ellipse>
                    <ellipse id="Oval-1" stroke="#637587" stroke-width="1.5" cx="608.884014" cy="153.222951" rx="63.2093349" ry="63.2093349"></ellipse>
                </g>
                <use id="Rectangle-3" stroke="#FF4E2C" mask="url(#mask-4)" stroke-width="2" xlink:href="#path-3"></use>
                <use id="Rectangle-3" stroke="#FF4E2C" mask="url(#mask-6)" stroke-width="2" xlink:href="#path-5"></use>
            </g>
            <path d="M506.75,598.5 L506.75,630.50008 C506.75,631.604605 507.335821,633.179451 508.057194,634.016117 L839.127888,1018.00048 C839.491057,1018.42169 840.078496,1019.10102 840.456376,1019.50746 C840.456376,1019.50746 844.07376,1024.03612 849.043716,1024.0361 C854.013672,1024.03608 858.271501,1019.98489 858.271501,1019.98489 C858.692324,1019.62355 859.363741,1019.04208 859.793275,1018.66684 L1601.64925,370.568739 C1602.89406,369.481259 1603.87742,367.262233 1603.84555,365.606373 L1603.26655,335.527014" id="Line" stroke="#FF4E2C" stroke-width="1.5" stroke-linecap="square"></path>
            <path d="M839.75,984.5 L839.75,1018" id="Line" stroke="#FF4E2C" stroke-width="1.5" stroke-linecap="square"></path>
            <path d="M844.75,987.5 L844.75,1022.5" id="Line" stroke="#FF4E2C" stroke-width="1.5" stroke-linecap="square"></path>
            <path d="M853.75,987.5 L853.75,1022.5" id="Line" stroke="#FF4E2C" stroke-width="1.5" stroke-linecap="square"></path>
            <path d="M858.75,984.5 L858.75,1018.5" id="Line" stroke="#FF4E2C" stroke-width="1.5" stroke-linecap="square"></path>
            <path d="M873.75,971.5 L873.75,1005.5" id="Line" stroke="#FF4E2C" stroke-width="1.5" stroke-linecap="square"></path>
            <path d="M876.75,969.5 L876.75,1003.5" id="Line" stroke="#FF4E2C" stroke-width="1.5" stroke-linecap="square"></path>
            <path d="M661.75,779.5 L661.75,811.5" id="Line" stroke="#FF4E2C" stroke-width="1.5" stroke-linecap="square"></path>
            <path d="M890.75,957.25 L890.75,991.25" id="Line" stroke="#FF4E2C" stroke-width="1.5" stroke-linecap="square"></path>
            <path d="M895.75,952.5 L895.75,986.25" id="Line" stroke="#FF4E2C" stroke-width="1.5" stroke-linecap="square"></path>
            <path d="M898.75,950.25 L898.75,984.25" id="Line" stroke="#FF4E2C" stroke-width="1.5" stroke-linecap="square"></path>
            <path d="M918.75,932.5 L918.75,966.25" id="Line" stroke="#FF4E2C" stroke-width="1.5" stroke-linecap="square"></path>
            <path d="M924.75,927.5 L924.75,961.25" id="Line" stroke="#FF4E2C" stroke-width="1.5" stroke-linecap="square"></path>
            <path d="M929.75,923.5 L929.75,957.25" id="Line" stroke="#FF4E2C" stroke-width="1.5" stroke-linecap="square"></path>
            <path d="M933.75,919.5 L933.75,953.25" id="Line" stroke="#FF4E2C" stroke-width="1.5" stroke-linecap="square"></path>
            <path d="M1008.75,854.5 L1008.75,888.25" id="Line" stroke="#FF4E2C" stroke-width="1.5" stroke-linecap="square"></path>
            <path d="M1014.75,849.5 L1014.75,882.5" id="Line" stroke="#FF4E2C" stroke-width="1.5" stroke-linecap="square"></path>
            <path d="M1019.75,844.5 L1019.75,878.5" id="Line" stroke="#FF4E2C" stroke-width="1.5" stroke-linecap="square"></path>
            <path d="M1023.75,841.5 L1023.75,874.5" id="Line" stroke="#FF4E2C" stroke-width="1.5" stroke-linecap="square"></path>
            <path d="M1046.75,821.5 L1046.75,854.5" id="Line" stroke="#FF4E2C" stroke-width="1.5" stroke-linecap="square"></path>
            <path d="M1086.75,786.5 L1086.75,819.5" id="Line" stroke="#FF4E2C" stroke-width="1.5" stroke-linecap="square"></path>
            <path d="M1098.75,776.5 L1098.75,809.5" id="Line" stroke="#FF4E2C" stroke-width="1.5" stroke-linecap="square"></path>
            <path d="M1109.75,766.5 L1109.75,799.5" id="Line" stroke="#FF4E2C" stroke-width="1.5" stroke-linecap="square"></path>
            <path d="M1136.75,743.5 L1136.75,776.41" id="Line" stroke="#FF4E2C" stroke-width="1.5" stroke-linecap="square"></path>
            <path d="M1139.75,740.5 L1139.75,773.41" id="Line" stroke="#FF4E2C" stroke-width="1.5" stroke-linecap="square"></path>
            <path d="M1142.75,737.5 L1142.75,770.41" id="Line" stroke="#FF4E2C" stroke-width="1.5" stroke-linecap="square"></path>
            <path d="M1154.75,727.5 L1154.75,760.41" id="Line" stroke="#FF4E2C" stroke-width="1.5" stroke-linecap="square"></path>
            <path d="M1164.75,718.5 L1164.75,751.41" id="Line" stroke="#FF4E2C" stroke-width="1.5" stroke-linecap="square"></path>
            <path d="M1170.75,713.5 L1170.75,746.41" id="Line" stroke="#FF4E2C" stroke-width="1.5" stroke-linecap="square"></path>
            <path d="M740.5,870.5 L740.5,902.5" id="Line" stroke="#FF4E2C" stroke-width="1.5" stroke-linecap="square"></path>
            <path d="M743.5,873.5 L743.5,906.5" id="Line" stroke="#FF4E2C" stroke-width="1.5" stroke-linecap="square"></path>
            <path d="M755.5,887.5 L755.5,920.5" id="Line" stroke="#FF4E2C" stroke-width="1.5" stroke-linecap="square"></path>
            <path d="M786.5,923.5 L786.5,956.5" id="Line" stroke="#FF4E2C" stroke-width="1.5" stroke-linecap="square"></path>
            <path d="M789.5,926.5 L789.5,959.5" id="Line" stroke="#FF4E2C" stroke-width="1.5" stroke-linecap="square"></path>
            <path d="M793.5,931.5 L793.5,964.5" id="Line" stroke="#FF4E2C" stroke-width="1.5" stroke-linecap="square"></path>
            <path d="M800.5,939.5 L800.5,972.5" id="Line" stroke="#FF4E2C" stroke-width="1.5" stroke-linecap="square"></path>
            <path d="M812.5,953.5 L812.5,986.5" id="Line" stroke="#FF4E2C" stroke-width="1.5" stroke-linecap="square"></path>
            <path d="M825.5,968.5 L825.5,1001.5" id="Line" stroke="#FF4E2C" stroke-width="1.5" stroke-linecap="square"></path>
            <path d="M1256.5,639.5 L1256.73529,671.499135" id="Line" stroke="#FF4E2C" stroke-width="1.5" stroke-linecap="square"></path>
            <path d="M1261.75,634.5 L1261.75,666.5" id="Line" stroke="#FF4E2C" stroke-width="1.5" stroke-linecap="square"></path>
            <path d="M1276.75,621.5 L1276.75,653.5" id="Line" stroke="#FF4E2C" stroke-width="1.5" stroke-linecap="square"></path>
            <path d="M1279.75,619.5 L1279.75,651.5" id="Line" stroke="#FF4E2C" stroke-width="1.5" stroke-linecap="square"></path>
            <path d="M1293.75,607.25 L1293.75,639.25" id="Line" stroke="#FF4E2C" stroke-width="1.5" stroke-linecap="square"></path>
            <path d="M1298.75,602.5 L1298.75,634.5" id="Line" stroke="#FF4E2C" stroke-width="1.5" stroke-linecap="square"></path>
            <path d="M1301.75,600.25 L1301.75,632.25" id="Line" stroke="#FF4E2C" stroke-width="1.5" stroke-linecap="square"></path>
            <path d="M1321.75,582.5 L1321.75,614.5" id="Line" stroke="#FF4E2C" stroke-width="1.5" stroke-linecap="square"></path>
            <path d="M1327.75,577.5 L1327.75,609.5" id="Line" stroke="#FF4E2C" stroke-width="1.5" stroke-linecap="square"></path>
            <path d="M1332.75,572.5 L1332.75,604.5" id="Line" stroke="#FF4E2C" stroke-width="1.5" stroke-linecap="square"></path>
            <path d="M1336.75,569.5 L1336.75,601.5" id="Line" stroke="#FF4E2C" stroke-width="1.5" stroke-linecap="square"></path>
            <path d="M1411.75,504.5 L1411.75,535.5" id="Line" stroke="#FF4E2C" stroke-width="1.5" stroke-linecap="square"></path>
            <path d="M1417.75,498.5 L1417.75,530.5" id="Line" stroke="#FF4E2C" stroke-width="1.5" stroke-linecap="square"></path>
            <path d="M1422.75,494.5 L1422.75,526.5" id="Line" stroke="#FF4E2C" stroke-width="1.5" stroke-linecap="square"></path>
            <path d="M1426.75,491.5 L1426.75,522.5" id="Line" stroke="#FF4E2C" stroke-width="1.5" stroke-linecap="square"></path>
            <path d="M816.5,586.5 L1190.5,261.5" id="Line" stroke="#637587" stroke-width="1.5" stroke-linecap="square"></path>
            <path d="M900.5,680.5 L1274.5,355.5" id="Line" stroke="#637587" stroke-width="1.5" stroke-linecap="square"></path>
            <circle id="Oval-5" stroke="#637587" stroke-width="1.5" cx="528" cy="594" r="9"></circle>
            <circle id="Oval-5" stroke="#637587" stroke-width="1.5" cx="849" cy="969" r="9"></circle>
            <circle id="Oval-5" stroke="#FF4E2C" stroke-width="1.5" cx="1063.5" cy="758.5" r="11.5"></circle>
            <circle id="Oval-5" stroke="#FF4E2C" stroke-width="1.5" cx="1110" cy="695" r="8"></circle>
            <circle id="Oval-5" stroke="#FF4E2C" stroke-width="1.5" cx="1357.5" cy="502.5" r="11.5"></circle>
            <circle id="Oval-5" stroke="#FF4E2C" stroke-width="1.5" cx="1284" cy="559" r="8"></circle>
            <path d="M511.5,606.5 L511.5,637.5" id="Line" stroke="#FF4E2C" stroke-width="1.5" stroke-linecap="square"></path>
            <path d="M513.5,609.5 L513.5,640.5" id="Line" stroke="#FF4E2C" stroke-width="1.5" stroke-linecap="square"></path>
            <path d="M520.5,617.5 L520.5,648.5" id="Line" stroke="#FF4E2C" stroke-width="1.5" stroke-linecap="square"></path>
            <path d="M522.5,619.5 L522.5,650.5" id="Line" stroke="#FF4E2C" stroke-width="1.5" stroke-linecap="square"></path>
            <path d="M526.5,623.5 L526.5,654.5" id="Line" stroke="#FF4E2C" stroke-width="1.5" stroke-linecap="square"></path>
            <path d="M543.5,643.5 L543.5,674.5" id="Line" stroke="#FF4E2C" stroke-width="1.5" stroke-linecap="square"></path>
            <path d="M549.5,650.5 L549.5,681.5" id="Line" stroke="#FF4E2C" stroke-width="1.5" stroke-linecap="square"></path>
            <path d="M551.5,652.5 L551.5,683.5" id="Line" stroke="#FF4E2C" stroke-width="1.5" stroke-linecap="square"></path>
            <path d="M508.5,603.5 L508.5,634.5" id="Line" stroke="#FF4E2C" stroke-width="1.5" stroke-linecap="square"></path>
            <path d="M563.5,666.5 L563.5,697.5" id="Line" stroke="#FF4E2C" stroke-width="1.5" stroke-linecap="square"></path>
            <path d="M565.5,669.5 L565.5,700.5" id="Line" stroke="#FF4E2C" stroke-width="1.5" stroke-linecap="square"></path>
            <path d="M572.5,677.5 L572.5,708.5" id="Line" stroke="#FF4E2C" stroke-width="1.5" stroke-linecap="square"></path>
            <path d="M574.5,679.5 L574.5,710.5" id="Line" stroke="#FF4E2C" stroke-width="1.5" stroke-linecap="square"></path>
            <path d="M578.5,683.5 L578.5,715.5" id="Line" stroke="#FF4E2C" stroke-width="1.5" stroke-linecap="square"></path>
            <path d="M595.5,703.5 L595.5,734.5" id="Line" stroke="#FF4E2C" stroke-width="1.5" stroke-linecap="square"></path>
            <path d="M601.5,710.5 L601.5,741.5" id="Line" stroke="#FF4E2C" stroke-width="1.5" stroke-linecap="square"></path>
            <path d="M603.5,712.5 L603.5,744.5" id="Line" stroke="#FF4E2C" stroke-width="1.5" stroke-linecap="square"></path>
            <path d="M560.5,663.5 L560.5,694.5" id="Line" stroke="#FF4E2C" stroke-width="1.5" stroke-linecap="square"></path>
            <path d="M611.5,721.5 L611.5,753.5" id="Line" stroke="#FF4E2C" stroke-width="1.5" stroke-linecap="square"></path>
            <path d="M613.5,724.5 L613.5,755.5" id="Line" stroke="#FF4E2C" stroke-width="1.5" stroke-linecap="square"></path>
            <path d="M620.5,732.5 L620.5,763.5" id="Line" stroke="#FF4E2C" stroke-width="1.5" stroke-linecap="square"></path>
            <path d="M622.5,734.5 L622.5,766.5" id="Line" stroke="#FF4E2C" stroke-width="1.5" stroke-linecap="square"></path>
            <path d="M626.5,738.5 L626.5,770.5" id="Line" stroke="#FF4E2C" stroke-width="1.5" stroke-linecap="square"></path>
            <path d="M643.5,758.5 L643.5,790.5" id="Line" stroke="#FF4E2C" stroke-width="1.5" stroke-linecap="square"></path>
            <path d="M702.5,826.5 L702.5,858.5" id="Line" stroke="#FF4E2C" stroke-width="1.5" stroke-linecap="square"></path>
            <path d="M686.5,808.5 L686.5,840.5" id="Line" stroke="#FF4E2C" stroke-width="1.5" stroke-linecap="square"></path>
            <path d="M706.5,831.5 L706.5,863.5" id="Line" stroke="#FF4E2C" stroke-width="1.5" stroke-linecap="square"></path>
            <path d="M715.5,841.5 L715.5,873.5" id="Line" stroke="#FF4E2C" stroke-width="1.5" stroke-linecap="square"></path>
            <path d="M734.5,863.5 L734.5,895.5" id="Line" stroke="#FF4E2C" stroke-width="1.5" stroke-linecap="square"></path>
            <path d="M649.5,765.5 L649.5,797.5" id="Line" stroke="#FF4E2C" stroke-width="1.5" stroke-linecap="square"></path>
            <path d="M651.5,767.5 L651.5,799.5" id="Line" stroke="#FF4E2C" stroke-width="1.5" stroke-linecap="square"></path>
            <path d="M608.5,718.5 L608.5,749.5" id="Line" stroke="#FF4E2C" stroke-width="1.5" stroke-linecap="square"></path>
        </g>
    </g>
</svg>