<?xml version="1.0" encoding="UTF-8" standalone="no"?>
<svg width="50px" height="50px" viewBox="0 0 50 50" version="1.1" xmlns="http://www.w3.org/2000/svg" xmlns:xlink="http://www.w3.org/1999/xlink">
    <!-- Generator: Sketch 3.7.2 (28276) - http://www.bohemiancoding.com/sketch -->
    <title>mute</title>
    <desc>Created with Sketch.</desc>
    <defs></defs>
    <g id="Page-1" stroke="none" stroke-width="1" fill="none" fill-rule="evenodd">
        <g id="mute">
            <g id="Group" transform="translate(2.000000, 2.000000)">
                <circle id="Oval-13" stroke="#00C9AE" stroke-width="2" cx="23" cy="23" r="23"></circle>
                <path d="M28.5559198,36.6015985 C28.5559198,37.1553004 28.1673842,37.3705237 27.6907534,37.083908 L14.0299133,28.8691395 L10.187055,28.8691395 C8.265625,28.8691395 8.265625,26.9280222 8.265625,26.9280222 L8.265625,19.1635568 C8.265625,19.1635568 8.265625,17.2224395 10.187055,17.2224395 L14.0299133,17.2224395 L15.3676764,16.4179928 L16.9698387,17.4396104 L14.0240771,19.0461016 L10.1101973,19.0461016 L10.1101973,26.8979738 L14.0240771,26.8979738 L26.7113475,33.9645708 L26.7113475,23.651276 L28.5559198,24.8274671 L28.5559198,36.6015985 Z M28.5559198,9.48503764 C28.5559198,8.93406557 28.1728769,8.71775227 27.7060228,8.99848888 L20.6142578,13.2630292 L22.4646884,14.4429545 L26.7113475,12.1270082 L26.7113475,17.1508341 L28.5559198,18.3270234 L28.5559198,9.48503764 Z M35.8834996,22.9994502 C35.594149,20.2767593 34.0877237,17.9115638 31.9106765,16.4429786 L31.9106765,16.4429786 L30.4469752,17.6807298 C31.9550495,18.5559448 33.1200205,19.9449029 33.6947652,21.6038061 L35.8834996,22.9994502 L35.8834996,22.9994502 L35.8834996,22.9994502 Z M34.5975118,28.6798843 C34.0035614,29.6435996 33.2332274,30.489827 32.3307262,31.1749441 L30.821748,30.0052442 C31.7252822,29.4061707 32.4871607,28.6151741 33.0473831,27.6914452 L34.5975118,28.6798843 L34.5975118,28.6798843 L34.5975118,28.6798843 Z M11.8845171,11.4826906 L41.8637334,30.5608469 L42.7008014,29.3192869 L12.7215851,10.241129 L11.8845171,11.4826906 L11.8845171,11.4826906 Z" id="device-volume-loudspeaker-speaker-mute-outline-stroke" fill="#00C9AE"></path>
            </g>
        </g>
    </g>
</svg>