<?xml version="1.0" encoding="UTF-8" standalone="no"?>
<svg width="50px" height="50px" viewBox="0 0 50 50" version="1.1" xmlns="http://www.w3.org/2000/svg" xmlns:xlink="http://www.w3.org/1999/xlink">
    <!-- Generator: Sketch 3.7.2 (28276) - http://www.bohemiancoding.com/sketch -->
    <title>sound</title>
    <desc>Created with Sketch.</desc>
    <defs></defs>
    <g id="Page-1" stroke="none" stroke-width="1" fill="none" fill-rule="evenodd">
        <g id="sound">
            <g id="Group" transform="translate(2.000000, 2.000000)">
                <circle id="Oval-13" stroke="#00C9AE" stroke-width="2" cx="23" cy="23" r="23"></circle>
                <path d="M10.521702,17.1325462 C8.625,17.1325462 8.625,19.0747691 8.625,19.0747691 L8.625,26.8436568 C8.625,26.8436568 8.625,28.7858796 10.521702,28.7858796 L14.3151042,28.7858796 L27.8001347,37.0053267 C28.2718035,37.2928201 28.6541667,37.0682645 28.6541667,36.5230443 L28.6541667,9.39538152 C28.6541667,8.84153089 28.2706314,8.62632013 27.8001347,8.91309909 L14.3151042,17.1325462 L10.521702,17.1325462 Z M10.4458333,18.957247 L10.4458333,26.8135912 L14.3093431,26.8135912 L26.8333333,33.8842129 L26.8333333,12.0342129 L14.3093431,18.957247 L10.4458333,18.957247 L10.4458333,18.957247 Z M31.965749,16.3526415 C34.3637592,17.9923073 35.9375,20.7490126 35.9375,23.873284 C35.9375,26.8136968 34.5435337,29.4285318 32.3803928,31.0929974 L30.8908346,29.9226313 C32.836457,28.6150563 34.1166667,26.3936742 34.1166667,23.873284 C34.1166667,21.1964059 32.6725492,18.8568208 30.520885,17.5910976 L31.965749,16.3526415 L31.965749,16.3526415 L31.965749,16.3526415 Z" id="device-volume-loudspeaker-speaker-down-outline-stroke" fill="#00C9AE"></path>
            </g>
        </g>
    </g>
</svg>